<?xml version="1.0" encoding="UTF-8" standalone="no"?>
<!-- Generator: Adobe Illustrator 22.1.0, SVG Export Plug-In . SVG Version: 6.00 Build 0)  -->

<svg
   xmlns:dc="http://purl.org/dc/elements/1.1/"
   xmlns:cc="http://creativecommons.org/ns#"
   xmlns:rdf="http://www.w3.org/1999/02/22-rdf-syntax-ns#"
   xmlns:svg="http://www.w3.org/2000/svg"
   xmlns="http://www.w3.org/2000/svg"
   xmlns:sodipodi="http://sodipodi.sourceforge.net/DTD/sodipodi-0.dtd"
   xmlns:inkscape="http://www.inkscape.org/namespaces/inkscape"
   version="1.1"
   id="ROBOT"
   x="0px"
   y="0px"
   viewBox="0 0 153.6 139.9"
   style="enable-background:new 0 0 153.6 139.9;"
   xml:space="preserve"
   sodipodi:docname="cue_outline.svg"
   inkscape:version="0.92.2 5c3e80d, 2017-08-06"><metadata
     id="metadata15"><rdf:RDF><cc:Work
         rdf:about=""><dc:format>image/svg+xml</dc:format><dc:type
           rdf:resource="http://purl.org/dc/dcmitype/StillImage" /></cc:Work></rdf:RDF></metadata><defs
     id="defs13" /><sodipodi:namedview
     pagecolor="#ffffff"
     bordercolor="#666666"
     borderopacity="1"
     objecttolerance="10"
     gridtolerance="10"
     guidetolerance="10"
     inkscape:pageopacity="0"
     inkscape:pageshadow="2"
     inkscape:window-width="1192"
     inkscape:window-height="841"
     id="namedview11"
     showgrid="false"
     inkscape:zoom="4.5746818"
     inkscape:cx="76.45"
     inkscape:cy="69.449994"
     inkscape:window-x="102"
     inkscape:window-y="23"
     inkscape:window-maximized="0"
     inkscape:current-layer="ROBOT" /><style
     type="text/css"
     id="style2">
	.st0{fill:#FFFFFF;}
</style><g
     id="g8"
     style="fill:#000000;stroke:none;stroke-opacity:1;fill-opacity:0.31683168"><path
       class="st0"
       d="m 33.8,135.6 c -1.9,0 -3.5,-1.6 -3.5,-3.5 v -2.4 c -1.9,-0.4 -3.7,-1.1 -5.5,-1.9 H 14.6 c -1,0 -2,-0.4 -2.7,-1.2 C 9.6,124.1 7.7,121.2 6.2,118.1 6,117.6 5.8,117 5.8,116.4 v -2.5 c -0.8,-0.1 -1.5,-0.6 -1.7,-1.4 -0.8,-2.9 -1.2,-5.9 -1.2,-8.9 0,-2.7 0.3,-5.4 1,-8.1 0.2,-0.8 1,-1.4 1.8,-1.4 h 0.1 v -3.2 c 0,-0.6 0.1,-1.2 0.4,-1.8 2.4,-5.2 6.2,-9.7 10.8,-13 0.1,-0.1 0.2,-0.1 0.3,-0.1 0.1,0 0.2,0 0.3,0.1 l 0.3,0.2 c 5.5,-4.5 12.3,-7 19.4,-7 2.1,0 4.1,0.2 6.1,0.6 h 0.2 c 0.4,0 0.7,-0.3 0.9,-0.6 0.3,-1.2 0.7,-2.8 1.1,-4 l 0.5,-2 c 0.6,-2 2.5,-2.9 3.5,-3.3 -1.5,-1.9 -2.7,-3.9 -3.7,-6.1 -0.3,-0.5 -0.4,-1.2 -0.4,-1.8 V 49.6 C 44.7,49.5 44,49 43.8,48.2 43,45.3 42.6,42.3 42.6,39.3 c 0,-2.7 0.3,-5.4 1,-8.1 0.2,-0.8 1,-1.4 1.8,-1.4 h 0.1 v -3.2 c 0,-0.6 0.1,-1.3 0.4,-1.9 C 51.5,13 63.5,5.4 76.5,5.4 c 13,0 25.1,7.6 30.7,19.4 0.3,0.6 0.4,1.2 0.4,1.9 v 3.2 h 0.1 c 0.9,0 1.6,0.6 1.8,1.4 0.6,2.6 1,5.3 1,8.1 0,3 -0.4,6 -1.2,8.9 -0.2,0.8 -0.9,1.3 -1.7,1.4 v 2.5 c 0,0.6 -0.1,1.2 -0.4,1.8 -1,2.2 -2.3,4.2 -3.7,6.1 1.1,0.4 3,1.3 3.5,3.2 0.1,0.5 0.3,1.2 0.5,2 0.3,1.3 0.7,2.9 1.1,4.1 0.1,0.4 0.5,0.6 0.8,0.6 h 0.2 c 2,-0.4 4,-0.6 6.1,-0.6 7.1,0 14,2.5 19.4,7 l 0.3,-0.2 c 0.1,-0.1 0.2,-0.1 0.3,-0.1 0.1,0 0.2,0 0.3,0.1 4.6,3.4 8.4,7.9 10.8,13 0.3,0.5 0.4,1.2 0.4,1.8 v 3.2 h 0.1 c 0.9,0 1.6,0.6 1.8,1.4 0.6,2.6 1,5.3 1,8.1 0,3 -0.4,6 -1.2,8.9 -0.2,0.8 -0.9,1.3 -1.7,1.4 v 2.5 c 0,0.6 -0.1,1.2 -0.4,1.7 -1.5,3.1 -3.4,5.9 -5.7,8.5 -0.7,0.7 -1.7,1.2 -2.7,1.2 h -10.2 c -1.8,0.8 -3.6,1.4 -5.5,1.9 v 2.5 c 0,1.9 -1.6,3.5 -3.5,3.5 h -7.7 c -1.9,0 -3.5,-1.6 -3.5,-3.5 v -4.2 H 91.8 c -1,0 -2,-0.4 -2.7,-1.2 L 89,126.8 c -1.1,-1.2 -2.1,-2.4 -2.9,-3.7 -3,1.2 -6.2,1.8 -9.4,1.8 -3.3,0 -6.4,-0.6 -9.5,-1.8 -0.9,1.3 -1.8,2.5 -2.9,3.7 l -0.1,0.1 c -0.7,0.7 -1.7,1.2 -2.7,1.2 H 45.2 v 4.2 c 0,1.9 -1.6,3.5 -3.5,3.5 z"
       id="path4"
       inkscape:connector-curvature="0"
       style="fill:#000000;stroke:none;stroke-opacity:1;fill-opacity:0.31683168"
       sodipodi:nodetypes="csccsccsccscscsccsccscscccccsccscscscscscscsccscccccscsccsccscscsccsccsccsssscscccsccsscscc" /><path
       d="m 76.5,4.9 v 0 0 c -13.2,0 -25.4,7.7 -31.1,19.6 -0.3,0.7 -0.5,1.4 -0.5,2.1 v 2.7 c -0.9,0.2 -1.7,0.9 -1.9,1.8 -0.7,2.7 -1,5.4 -1,8.2 0,3.1 0.4,6.1 1.2,9 0.2,0.8 0.9,1.5 1.7,1.7 v 2.1 c 0,0.7 0.2,1.4 0.4,2 0.9,2 2.1,3.9 3.4,5.6 -1.2,0.5 -2.7,1.5 -3.2,3.4 -0.1,0.5 -0.3,1.2 -0.5,2 -0.3,1.3 -0.7,2.9 -1.1,4 0,0.2 -0.2,0.3 -0.4,0.3 h -0.1 c -2,-0.4 -4.1,-0.6 -6.2,-0.6 -7.1,0 -13.9,2.4 -19.4,6.8 -0.2,-0.1 -0.4,-0.2 -0.6,-0.2 -0.2,0 -0.4,0.1 -0.6,0.2 -4.7,3.4 -8.5,8 -11,13.2 -0.3,0.6 -0.4,1.3 -0.4,2 v 2.7 c -0.9,0.2 -1.7,0.9 -1.9,1.8 -0.7,2.7 -1,5.4 -1,8.2 0,3.1 0.4,6.1 1.2,9 0.2,0.8 0.9,1.5 1.7,1.7 v 2.1 c 0,0.7 0.1,1.3 0.4,1.9 1.5,3.1 3.4,6 5.8,8.6 0.8,0.9 1.9,1.3 3.1,1.3 h 10.1 c 1.7,0.8 3.4,1.3 5.1,1.8 v 2.1 c 0,2.2 1.8,4 4,4 h 7.7 c 2.2,0 4,-1.8 4,-4 v -3.7 h 15.7 c 1.2,0 2.3,-0.5 3.1,-1.3 l 0.1,-0.2 c 1,-1.1 1.9,-2.2 2.8,-3.4 3,1.1 6.1,1.7 9.3,1.7 3.2,0 6.3,-0.6 9.3,-1.7 0.8,1.2 1.7,2.3 2.8,3.4 l 0.1,0.1 c 0.8,0.8 1.9,1.3 3.1,1.3 h 15.8 v 3.7 c 0,2.2 1.8,4 4,4 h 7.7 c 2.2,0 4,-1.8 4,-4 v -2.1 c 1.8,-0.4 3.5,-1 5.1,-1.8 h 10.1 c 1.2,0 2.3,-0.5 3.1,-1.3 2.4,-2.6 4.3,-5.5 5.8,-8.6 0.3,-0.6 0.4,-1.2 0.4,-1.9 v -2.1 c 0.8,-0.2 1.4,-0.9 1.7,-1.7 0.8,-2.9 1.2,-6 1.2,-9 0,-2.8 -0.3,-5.5 -1,-8.2 -0.2,-0.9 -1,-1.6 -1.9,-1.8 v -2.7 c 0,-0.7 -0.2,-1.4 -0.4,-2 -2.5,-5.2 -6.3,-9.8 -11,-13.2 -0.2,-0.1 -0.4,-0.2 -0.6,-0.2 -0.2,0 -0.4,0.1 -0.6,0.2 -5.5,-4.4 -12.4,-6.8 -19.4,-6.8 -2.1,0 -4.2,0.2 -6.2,0.6 h -0.1 c -0.2,0 -0.3,-0.1 -0.4,-0.3 -0.3,-1.2 -0.7,-2.8 -1.1,-4 -0.2,-0.8 -0.4,-1.5 -0.5,-2 -0.5,-1.8 -2,-2.8 -3.2,-3.3 1.3,-1.8 2.4,-3.7 3.4,-5.7 0.3,-0.6 0.4,-1.3 0.4,-2 v -2.1 c 0.8,-0.2 1.5,-0.9 1.7,-1.7 0.8,-2.9 1.2,-6 1.2,-9 0,-2.8 -0.3,-5.5 -1,-8.2 -0.2,-0.9 -1,-1.6 -1.9,-1.8 v -2.7 c 0,-0.7 -0.2,-1.4 -0.5,-2.1 C 102,12.6 89.8,4.9 76.5,4.9 Z"
       id="path6"
       inkscape:connector-curvature="0"
       sodipodi:nodetypes="ccccsccsccscccccscscsccsccsccsccsccsssscscccscssscssssccsccsccsccsccscscsccccssccsccscc"
       style="fill:#000000;stroke:none;stroke-opacity:1;fill-opacity:0.31683168" /></g></svg>