<?xml version="1.0" encoding="UTF-8" standalone="no"?>
<svg
   xmlns="http://www.w3.org/2000/svg"
   viewBox="0 0 2089.7791 1034.4175"
   >
    <path
     d="m 562.82716,1020.5775 c 31.582,0 60.891,-16.86 76.652,-44.12 l 399.40004,-691.99 161.53,279.72 c 16.33,28.34 45.94,44.07 76.52,44.07 15.07,0 30.23,-3.71 44.11,-11.8 42.2,-24.36 56.88,-78.44 32.33,-120.72 0,0 -238.4,-412.72 -238.53,-412.94 -7.47,-12.67 -18.22,-23.76 -31.8,-31.5 -42.14,-24.5 -96.26704,-10 -120.64204,32.28 l -399.531,691.7 -398.086,-691.61 c -24.148,-42.37 -78.093495,-56.69 -120.507595,-32.49 -42.2734003,24.32 -56.7773,78.4 -32.539,120.68 l 474.570595,824.39 c 15.675,27.39 44.855,44.25 76.523,44.33 v 0" />

     <path
     d="m 1512.6592,1040.4175 c 29.49,0 58.05,-11.71 78.67,-32.64 20.61,-20.48 32.23,-49.13 32.23,-78.18 0,-29 -11.62,-57.61 -32.23,-78.14 -41.11,-41.49 -115.75,-41.49 -156.67,0 -20.63,20.53 -32.68,49.14 -32.68,78.14 0,29.05 12.05,57.7 32.68,78.18 20.56,20.93 49,32.64 78,32.64" />

     <path
     d="m 1979.0192,226.1075 c 29.35,0 58,-11.7 78.45,-32.72 20.65,-20.47 32.31,-49.18 32.31,-78.18 0,-28.91 -11.66,-57.6 -32.31,-78.18 -40.89,-41.37 -115.58,-41.37 -156.64,0 -20.62,20.58 -32.67,49.27 -32.67,78.18 0,29 12.05,57.71 32.67,78.18 20.53,21.02 49.19,32.72 78.19,32.72" />

     </svg>